<svg xmlns="http://www.w3.org/2000/svg" xmlns:xlink="http://www.w3.org/1999/xlink" width="191.438" height="63.973" viewBox="0 0 191.438 63.973"><defs><style>.a{fill:#1d1b26;}.b,.c,.j{fill:#fff;}.b{stroke:#fff;stroke-miterlimit:10;stroke-width:0.2px;}.d{fill:#00d9ff;}.e{fill:#ffcf00;}.f{fill:url(#a);}.g{fill:#00f076;}.h{opacity:0.2;}.i{opacity:0.12;}.j{opacity:0.25;}</style><linearGradient id="a" x1="1.563" y1="-28.719" x2="0.194" y2="-30.479" gradientUnits="objectBoundingBox"><stop offset="0" stop-color="#ff3a44"/><stop offset="1" stop-color="#c31162"/></linearGradient></defs><path class="a" d="M12.315,63.973H10.875a19.6,19.6,0,0,1-3.039-.32,7.874,7.874,0,0,1-2.719-.96,7.778,7.778,0,0,1-2.239-1.759,6.327,6.327,0,0,1-1.6-2.4,7.874,7.874,0,0,1-.96-2.719A17.714,17.714,0,0,1,0,52.777V11.2A21.674,21.674,0,0,1,.32,8a7.874,7.874,0,0,1,.96-2.719,20.837,20.837,0,0,1,1.6-2.4,7.209,7.209,0,0,1,2.239-1.6A7.874,7.874,0,0,1,7.837.32,17.714,17.714,0,0,1,10.875,0H180.563A19.6,19.6,0,0,1,183.6.32a7.874,7.874,0,0,1,2.719.96,9.636,9.636,0,0,1,4,4,7.669,7.669,0,0,1,.8,2.719,21.675,21.675,0,0,1,.32,3.2V52.777a19.6,19.6,0,0,1-.32,3.039,13.509,13.509,0,0,1-.8,2.719,11.352,11.352,0,0,1-1.6,2.239,12.076,12.076,0,0,1-2.239,1.759,7.874,7.874,0,0,1-2.719.96,19.6,19.6,0,0,1-3.039.32h-3.2Z"/><g transform="translate(15.673 13.274)"><path class="b" d="M45.139,12.938a3.508,3.508,0,0,1-1.12,2.719,4.248,4.248,0,0,1-6.077,0,4.3,4.3,0,0,1,.16-6.077,4.586,4.586,0,0,1,4.638-.96,2.487,2.487,0,0,1,1.279.96l-.64.64a2.459,2.459,0,0,0-2.239-.96,3.378,3.378,0,0,0-3.359,3.359,3.28,3.28,0,0,0,3.359,3.359,3.158,3.158,0,0,0,2.239-.96,2.291,2.291,0,0,0,.64-1.6H40.981v-.96h4C45.139,12.458,45.139,12.778,45.139,12.938ZM51.377,9.42H47.7v2.559h3.518v.96H47.7V15.5h3.678v1.12h-4.8V8.46h4.8Zm4.638,7.357H54.9V9.42H52.5V8.46h5.758v.96h-2.4v7.357Zm6.237,0V8.46h1.12v8.316h-1.12Zm5.758,0H66.89V9.42h-2.4V8.46h5.6v.96h-2.4l.32,7.357Zm13.114-1.12a4.449,4.449,0,0,1-6.077,0h0a4.449,4.449,0,0,1,0-6.077,4.3,4.3,0,1,1,6.077,6.077Zm-5.278-.64a3.092,3.092,0,0,0,4.478,0h0a3.277,3.277,0,0,0,0-4.638,3.092,3.092,0,0,0-4.478,0h0A3.621,3.621,0,0,0,75.846,15.017Zm8,1.759V8.46h1.279l4,6.4V8.46h1.12v8.316H89.12L84.8,10.059v6.717h-.96Z" transform="translate(6.359 -8.3)"/><path class="c" d="M73.886,23.6a5.583,5.583,0,0,0-5.758,5.917c.16,3.359,2.559,5.917,5.917,5.758A5.583,5.583,0,0,0,79.8,29.357a5.84,5.84,0,0,0-5.6-5.917C74.046,23.439,74.046,23.439,73.886,23.6Zm0,9.276a3.606,3.606,0,1,1,3.359-3.838v.32a3.409,3.409,0,0,1-3.359,3.518ZM61.091,23.6a5.583,5.583,0,0,0-5.758,5.917,5.838,5.838,0,1,0,11.675-.16,5.84,5.84,0,0,0-5.6-5.917C61.251,23.439,61.251,23.439,61.091,23.6Zm0,9.276a3.606,3.606,0,1,1,3.359-3.838v.32a3.518,3.518,0,0,1-3.359,3.518ZM45.738,25.358v2.4h5.917a5.3,5.3,0,0,1-1.439,3.2,5.564,5.564,0,0,1-4.478,1.759,6.557,6.557,0,0,1,0-13.114,5.9,5.9,0,0,1,4.478,1.759L51.975,19.6a8.7,8.7,0,0,0-6.237-2.4,9.045,9.045,0,1,0-.8,18.072h.64a8.213,8.213,0,0,0,6.4-2.559,8.678,8.678,0,0,0,2.239-5.758,3.971,3.971,0,0,0-.16-1.439Zm62.533,1.919a5.335,5.335,0,0,0-4.958-3.678,5.393,5.393,0,0,0-5.438,5.438v.48a5.978,5.978,0,0,0,5.758,5.917,6.139,6.139,0,0,0,4.958-2.559l-1.919-1.439a3.169,3.169,0,0,1-2.879,1.6,3.021,3.021,0,0,1-2.879-1.759l7.837-3.359ZM100.115,29.2a3.353,3.353,0,0,1,3.039-3.518h0a2.552,2.552,0,0,1,2.239,1.279Zm-6.4,5.6h2.559V17.682H93.717Zm-4-10.076h0a4.927,4.927,0,0,0-3.2-1.439,5.692,5.692,0,0,0-5.438,6.237,5.6,5.6,0,0,0,5.438,5.438,3.512,3.512,0,0,0,3.039-1.439h.16v.96c0,2.239-1.279,3.518-3.2,3.518a3.28,3.28,0,0,1-3.039-2.079l-2.239.96a5.613,5.613,0,0,0,5.278,3.518c3.039,0,5.438-1.759,5.438-6.077v-10.4h-2.4v.8ZM86.68,32.875A3.549,3.549,0,0,1,83.322,29.2a3.611,3.611,0,0,1,3.359-3.359,3.5,3.5,0,0,1,3.2,3.518v.16a3.243,3.243,0,0,1-3.2,3.359Zm33.586-15.194h-6.237V34.954h2.559v-6.4h3.518a5.373,5.373,0,0,0,.8-10.715A.962.962,0,0,0,120.266,17.682Zm0,8.157h-3.518V19.921h3.678A2.973,2.973,0,0,1,123.3,22.8a3.037,3.037,0,0,1-3.039,3.039Zm15.673-2.4A4.647,4.647,0,0,0,131.461,26l2.4.96a2.5,2.5,0,0,1,2.4-1.279,2.4,2.4,0,0,1,2.719,2.239h0v.16a5.064,5.064,0,0,0-2.559-.64c-2.4,0-4.958,1.439-4.958,3.838a4.066,4.066,0,0,0,4.158,3.838h.16a3.493,3.493,0,0,0,3.359-1.6h.16v1.439h2.4V28.4c-.32-3.2-2.719-4.958-5.758-4.958Zm-.16,9.436c-.8,0-2.079-.48-2.079-1.439,0-1.439,1.439-1.759,2.719-1.759a6.417,6.417,0,0,1,2.4.48,3.107,3.107,0,0,1-3.039,2.719Zm14.554-9.116-2.879,7.357h-.16l-3.039-7.357h-2.719l4.478,10.4-2.559,5.758h2.559l7.037-16.153Zm-23.19,11.035H129.7V17.682h-2.559Z" transform="translate(6.08 -2.968)"/><path class="d" d="M10.4,8.9a2.1,2.1,0,0,0-.48,1.919V41.206a2.792,2.792,0,0,0,.64,1.919l.16.16L27.675,26.173v-.48L10.4,8.9Z" transform="translate(-9.763 -7.94)"/><path class="e" d="M26.5,27.675l-5.6-5.6V21.6L26.5,16l.16.16L33.375,20c1.919,1.12,1.919,2.879,0,4L26.5,27.675Z" transform="translate(-3.148 -3.685)"/><path class="f" d="M33.07,25.358,27.313,19.6,10.2,36.873a2.688,2.688,0,0,0,2.879.16L33.07,25.358" transform="translate(-9.56 -1.528)"/><path class="g" d="M33.07,20.435,13.079,9.08a2.4,2.4,0,0,0-2.879,0L27.473,26.352Z" transform="translate(-9.56 -8.12)"/><path class="h" d="M32.91,23.1,13.079,34.455a2.748,2.748,0,0,1-2.719,0l-.16.16.16.16a2.748,2.748,0,0,0,2.719,0L32.91,23.1Z" transform="translate(-9.56 0.57)"/><path class="i" d="M10.4,36.553a2.1,2.1,0,0,1-.48-1.919v.16a1.8,1.8,0,0,0,.48,1.759h0ZM39.99,21.359,33.113,25.2l.16.16,6.717-4A1.874,1.874,0,0,0,41.429,19.6,2.081,2.081,0,0,1,39.99,21.359Z" transform="translate(-9.763 -1.528)"/><path class="j" d="M13.318,9.129,40.187,24.322a2.676,2.676,0,0,1,1.439,1.759,2.549,2.549,0,0,0-1.439-1.919L13.318,9.129C11.4,7.849,9.8,8.649,9.8,10.888v.16C9.8,9.129,11.4,8.169,13.318,9.129Z" transform="translate(-9.8 -8.169)"/></g></svg>