<svg xmlns="http://www.w3.org/2000/svg" width="191.438" height="63.973" viewBox="0 0 191.438 63.973"><defs><style>.a{fill:#000;}.b{fill:#000;}</style></defs><path class="a" d="M12.315,63.973H10.875a19.6,19.6,0,0,1-3.039-.32,7.874,7.874,0,0,1-2.719-.96,7.778,7.778,0,0,1-2.239-1.759,6.327,6.327,0,0,1-1.6-2.4,7.874,7.874,0,0,1-.96-2.719A17.714,17.714,0,0,1,0,52.777V11.2A21.674,21.674,0,0,1,.32,8a7.874,7.874,0,0,1,.96-2.719,20.837,20.837,0,0,1,1.6-2.4,7.209,7.209,0,0,1,2.239-1.6A7.874,7.874,0,0,1,7.837.32,17.714,17.714,0,0,1,10.875,0H180.563A19.6,19.6,0,0,1,183.6.32a7.874,7.874,0,0,1,2.719.96,9.636,9.636,0,0,1,4,4,7.669,7.669,0,0,1,.8,2.719,21.675,21.675,0,0,1,.32,3.2V52.777a19.6,19.6,0,0,1-.32,3.039,13.509,13.509,0,0,1-.8,2.719,11.352,11.352,0,0,1-1.6,2.239,12.076,12.076,0,0,1-2.239,1.759,7.874,7.874,0,0,1-2.719.96,19.6,19.6,0,0,1-3.039.32h-3.2Z"/><g transform="translate(15.987 13.914)"><path class="b" d="M33.672,27.252a7.85,7.85,0,0,1,3.838-6.717,8.416,8.416,0,0,0-6.4-3.518c-2.719-.32-5.278,1.6-6.717,1.6s-3.518-1.6-5.758-1.6a8.692,8.692,0,0,0-7.2,4.318c-3.039,5.278-.8,13.274,2.239,17.592,1.439,2.079,3.2,4.478,5.438,4.478,2.239-.16,3.039-1.439,5.758-1.439s3.359,1.439,5.758,1.439,3.838-2.079,5.278-4.318a14.273,14.273,0,0,0,2.4-4.958A7.127,7.127,0,0,1,33.672,27.252ZM29.194,14.3a7.849,7.849,0,0,0,1.759-5.6,7.418,7.418,0,0,0-5.118,2.719,7.241,7.241,0,0,0-1.759,5.438A6.439,6.439,0,0,0,29.194,14.3Z" transform="translate(-9.996 -8.7)"/><path class="b" d="M46.975,32.614H39.458L37.7,38.051H34.5L41.7,18.22h3.2l7.2,19.832h-3.2Zm-6.717-2.4h6.077l-3.039-8.8h-.16Zm27.348.64c0,4.478-2.4,7.357-6.077,7.357a4.647,4.647,0,0,1-4.478-2.559h0v7.2H54.012V23.658H56.89v2.4h0A5.367,5.367,0,0,1,61.528,23.5c3.518-.16,6.077,2.879,6.077,7.357Zm-3.2,0c0-2.879-1.439-4.8-3.838-4.8-2.239,0-3.838,1.919-3.838,4.8s1.6,4.8,3.838,4.8C62.968,35.652,64.407,33.733,64.407,30.854Zm19.032,0c0,4.478-2.4,7.357-6.077,7.357a4.647,4.647,0,0,1-4.478-2.559h0v7.2H69.845V23.658h2.879v2.4h0A5.367,5.367,0,0,1,77.362,23.5C81.04,23.338,83.439,26.376,83.439,30.854Zm-3.039,0c0-2.879-1.439-4.8-3.838-4.8-2.239,0-3.838,1.919-3.838,4.8s1.6,4.8,3.838,4.8c2.4,0,3.838-1.919,3.838-4.8Zm13.594,1.6c.16,1.919,2.079,3.2,4.8,3.2,2.559,0,4.318-1.279,4.318-3.039,0-1.6-1.12-2.4-3.678-3.039l-2.559-.64c-3.678-.8-5.278-2.559-5.278-5.278,0-3.359,3.039-5.758,7.2-5.758s7.037,2.4,7.2,5.758h-3.039c-.16-1.919-1.759-3.2-4.158-3.2s-4,1.279-4,3.039c0,1.439,1.12,2.239,3.678,2.879l2.239.48c4,.96,5.758,2.559,5.758,5.438,0,3.678-2.879,6.077-7.677,6.077-4.478,0-7.357-2.239-7.517-5.917Zm18.552-12.315V23.5h2.719v2.4h-2.719v8c0,1.279.48,1.759,1.759,1.759h.96v2.4a5.441,5.441,0,0,1-1.6.16c-2.879,0-4-1.12-4-3.838V26.057h-2.079v-2.4h2.079V20.3h2.879Zm4.478,10.715c0-4.478,2.719-7.357,6.877-7.357s6.877,2.879,6.877,7.357c0,4.638-2.719,7.357-6.877,7.357C119.584,38.211,117.025,35.333,117.025,30.854Zm10.715,0c0-3.2-1.439-4.958-3.838-4.958s-3.838,1.759-3.838,4.958,1.439,4.958,3.838,4.958S127.74,33.893,127.74,30.854Zm5.438-7.357h2.879v2.559h0a3.308,3.308,0,0,1,3.518-2.559,2.028,2.028,0,0,1,.96.16v2.719a3.975,3.975,0,0,0-1.279-.16,3.007,3.007,0,0,0-3.039,2.879v9.116h-3.039Zm21.111,10.236c-.32,2.559-2.879,4.478-6.237,4.478-4.158,0-6.877-2.879-6.877-7.357s2.559-7.517,6.717-7.517c4,0,6.557,2.719,6.557,7.2v.96H144.213v.16a3.879,3.879,0,0,0,3.359,4.158h.48a3.138,3.138,0,0,0,3.359-2.079Zm-10.076-4.318h7.2a3.549,3.549,0,0,0-3.359-3.678h-.32a3.586,3.586,0,0,0-3.519,3.678Z" transform="translate(4.689 -3.186)"/></g><path class="b" d="M39.118,8.88A4.151,4.151,0,0,1,43.6,12.718v.8c0,3.039-1.6,4.8-4.478,4.8H35.6V8.72ZM37.2,17.2h1.759a3.029,3.029,0,0,0,3.2-2.879v-.64A3.042,3.042,0,0,0,39.6,10.319H37.2Zm8.157-2.4a3.374,3.374,0,0,1,6.717-.64v.64a3.374,3.374,0,1,1-6.717.64V14.8Zm5.278,0q0-2.4-1.919-2.4c-1.279,0-1.919.96-1.919,2.4,0,1.6.64,2.559,1.919,2.559S50.634,16.4,50.634,14.8Zm10.555,3.678H59.75L58.31,13.2h-.16l-1.439,5.278H55.272l-1.919-7.2h1.439l1.279,5.438h.16l1.439-5.438H59.11l1.439,5.438h.16l1.279-5.438h1.439Zm3.678-7.2h1.439V12.4h.16a2.305,2.305,0,0,1,2.079-1.279A2.347,2.347,0,0,1,71.1,13.358v5.118H69.665V14.158c0-1.12-.48-1.759-1.6-1.759A1.644,1.644,0,0,0,66.307,14v4.478H64.867ZM73.184,8.4h1.439V18.476H73.184Zm3.359,6.4a3.374,3.374,0,1,1,6.717-.64v.64a3.374,3.374,0,1,1-6.717.64Zm5.438,0q0-2.4-1.919-2.4c-1.279,0-1.919.96-1.919,2.4,0,1.6.64,2.559,1.919,2.559C81.18,17.356,81.98,16.4,81.98,14.8Zm2.879,1.6c0-1.279.96-2.079,2.719-2.079l1.919-.16v-.64c0-.8-.48-1.12-1.439-1.12-.8,0-1.279.32-1.439.8H85.179c.16-1.279,1.279-2.079,2.879-2.079,1.759,0,2.879.96,2.879,2.4v4.958H89.5v-.96h-.16a2.42,2.42,0,0,1-2.239,1.12,2.268,2.268,0,0,1-2.4-1.919c.16-.16.16-.16.16-.32Zm4.638-.64v-.64l-1.759.16c-.96,0-1.439.48-1.439.96,0,.64.64.96,1.279.96.96.32,1.759-.32,1.919-1.439Zm3.2-.96c0-2.239,1.12-3.678,3.039-3.678A2.552,2.552,0,0,1,97.973,12.4h.16v-4h1.439V18.476H98.133v-1.12h-.16a2.552,2.552,0,0,1-2.239,1.279C93.975,18.636,92.7,17.2,92.7,14.8Zm1.6,0q0,2.4,1.919,2.4c1.279,0,1.919-.96,1.919-2.4s-.8-2.4-1.919-2.4C94.935,12.4,94.295,13.358,94.295,14.8Zm11.035,0a3.374,3.374,0,1,1,6.717-.64v.64a3.374,3.374,0,1,1-6.717.64Zm5.438,0q0-2.4-1.919-2.4c-1.279,0-1.919.96-1.919,2.4,0,1.6.64,2.559,1.919,2.559C109.968,17.356,110.768,16.4,110.768,14.8Zm3.359-3.518h1.439V12.4h.16a2.305,2.305,0,0,1,2.079-1.279,2.347,2.347,0,0,1,2.559,2.239v5.118h-1.439V14.158c0-1.12-.48-1.759-1.6-1.759a1.644,1.644,0,0,0-1.759,1.6v4.478h-1.439ZM128.2,9.52v1.759h1.6v1.279h-1.6v3.678c0,.8.32,1.12.96,1.12h.48v1.12h-.8c-1.6,0-2.239-.48-2.239-1.919v-4h-1.12v-1.12h1.12V9.52Zm3.518-1.12h1.439v4h.16a2.142,2.142,0,0,1,2.239-1.279,2.586,2.586,0,0,1,2.559,2.239v5.118h-1.439V14.158c0-1.12-.48-1.759-1.6-1.759a1.644,1.644,0,0,0-1.759,1.6v4.478h-1.439V8.4Zm14.554,8.157a2.937,2.937,0,0,1-3.039,2.079,3.349,3.349,0,0,1-3.359-3.2v-.48a3.16,3.16,0,0,1,2.879-3.678h.48c2.079,0,3.2,1.439,3.2,3.678v.48h-5.118v.16a1.847,1.847,0,0,0,1.759,2.079h.16a1.875,1.875,0,0,0,1.759-.8Zm-5.118-2.4h3.678a1.9,1.9,0,0,0-1.6-1.919h-.16a2.206,2.206,0,0,0-1.919,1.919Z" transform="translate(21.336 5.034)"/></svg>