<svg width="1920" height="1080" viewBox="0 0 1920 1080" xmlns="http://www.w3.org/2000/svg"><rect width="1920" height="1080" fill="#33cc66"/><path d="M 0,1080 C 0,1080 0,154 0,154 C 72.35360800967024,155.4745880505319 144.70721601934048,156.9491761010638 183,153 C 221.29278398065952,149.0508238989362 225.5247439323083,139.67788364627668 272,140 C 318.4752560676917,140.32211635372332 407.1938082514264,150.33928931382945 462,142 C 516.8061917485736,133.66071068617055 537.7000230619864,106.9649590984055 561,119 C 584.2999769380136,131.0350409015945 610.0060995006279,181.8008742925486 659,209 C 707.9939004993721,236.1991257074514 780.2755789355018,239.8315437314002 838,209 C 895.7244210644982,178.1684562685998 938.8915847573642,112.87295078185065 988,112 C 1037.1084152426358,111.12704921814935 1092.1580820350414,174.67665314119725 1145,187 C 1197.8419179649586,199.32334685880275 1248.476087102471,160.4204366533603 1282,135 C 1315.523912897529,109.57956334663972 1331.9375695550743,97.64160024536164 1380,116 C 1428.0624304449257,134.35839975463836 1507.7736346772315,183.01316236519315 1545,183 C 1582.2263653227685,182.98683763480685 1576.9678917359997,134.30575029386577 1598,123 C 1619.0321082640003,111.69424970613423 1666.3547983787691,137.76383645934382 1741,158 C 1815.6452016212309,178.23616354065618 1917.612914748923,192.6389038687589 1952,191 C 1986.387085251077,189.3610961312411 1953.1935426255386,171.68054806562054 1920,154 C 1920,154 1920,1080 1920,1080 Z" fill="#005450" opacity="0.08571428571428572"/><path d="M 0,1080 C 0,1080 0,308 0,308 C 18.4458594788849,296.8211055924519 36.8917189577698,285.6422111849037 89,297 C 141.1082810422302,308.3577888150963 226.87898364780568,342.25226085283714 281,347 C 335.1210163521943,351.74773914716286 357.59234645100764,327.34874540374796 398,315 C 438.40765354899236,302.65125459625204 496.7516305481638,302.3527575321712 561,288 C 625.2483694518362,273.6472424678288 695.4011313563373,245.24022446756732 736,265 C 776.5988686436627,284.7597755324327 787.6438440264868,352.68634459755964 805,355 C 822.3561559735132,357.31365540244036 846.0234925377154,294.01439714219407 910,273 C 973.9765074622846,251.9856028578059 1078.2621858226519,273.2560668336641 1135,282 C 1191.7378141773481,290.7439331663359 1200.9277641716774,286.9613355231495 1235,278 C 1269.0722358283226,269.0386644768505 1328.0267574906384,254.8985910737379 1369,254 C 1409.9732425093616,253.1014089262621 1432.9652058657682,265.444300181899 1482,289 C 1531.0347941342318,312.555699818101 1606.112419046289,347.3242081986662 1659,360 C 1711.887580953711,372.6757918013338 1742.5851179490762,363.258867023436 1790,349 C 1837.4148820509238,334.741132976564 1901.5471091574068,315.6403237075897 1926,308 C 1950.4528908425932,300.3596762924103 1935.2264454212966,304.17983814620516 1920,308 C 1920,308 1920,1080 1920,1080 Z" fill="#005450" opacity="0.17142857142857143"/><path d="M 0,1080 C 0,1080 0,462 0,462 C 41.659814951862145,480.58160787183687 83.31962990372429,499.16321574367373 127,511 C 170.6803700962757,522.8367842563263 216.3812953369649,527.9287448971418 258,502 C 299.6187046630351,476.0712551028582 337.1551887484161,419.1218046677588 389,420 C 440.8448112515839,420.8781953322412 506.997949669371,479.5840364318229 560,490 C 613.002050330629,500.4159635681771 652.8530125740998,462.5420496049499 692,451 C 731.1469874259002,439.4579503950501 769.5900000342301,454.24776514837737 825,448 C 880.4099999657699,441.75223485162263 952.7869872889798,414.4668898015405 986,428 C 1019.2130127110202,441.5331101984595 1013.262050809851,495.88467564546056 1056,514 C 1098.737949190149,532.1153243545394 1190.1648094716168,513.9944076166171 1241,504 C 1291.8351905283832,494.005592383383 1302.078711303682,492.1376938880715 1344,489 C 1385.921288696318,485.8623061119285 1459.5203453136542,481.45481683109693 1525,466 C 1590.4796546863458,450.54518316890307 1647.839907441701,424.043038787541 1682,431 C 1716.160092558299,437.956961212459 1727.1200249195424,478.373028018739 1776,497 C 1824.8799750804576,515.626971981261 1911.6799928801306,512.464849137503 1942,503 C 1972.3200071198694,493.5351508624969 1946.1600035599347,477.7675754312485 1920,462 C 1920,462 1920,1080 1920,1080 Z" fill="#005450" opacity="0.2571428571428571"/><path d="M 0,1080 C 0,1080 0,617 0,617 C 39.25321149229035,590.5685607024755 78.5064229845807,564.137121404951 127,566 C 175.4935770154193,567.862878595049 233.22751955396762,598.0200750826715 294,605 C 354.7724804460324,611.9799249173285 418.5834987995489,595.7825782643631 455,582 C 491.4165012004511,568.2174217356369 500.4384852478365,556.8496118598764 521,568 C 541.5615147521635,579.1503881401236 573.6625602091051,612.8189742961313 642,632 C 710.3374397908949,651.1810257038687 814.9112739157431,655.8744909555983 866,636 C 917.0887260842569,616.1255090444017 914.6923441279223,571.6830618814756 956,559 C 997.3076558720777,546.3169381185244 1082.3193495725682,565.3932615184992 1138,587 C 1193.6806504274318,608.6067384815008 1220.030257581805,632.7438920445275 1241,628 C 1261.969742418195,623.2561079554725 1277.559620100212,589.6311703033908 1321,574 C 1364.440379899788,558.3688296966092 1435.7312620173466,560.7314267419091 1486,584 C 1536.2687379826534,607.2685732580909 1565.515331830402,651.4431227289728 1611,654 C 1656.484668169598,656.5568772710272 1718.2074106610457,617.4960823421998 1786,618 C 1853.7925893389543,618.5039176578002 1927.6550255254153,658.5725479022286 1951,665 C 1974.3449744745847,671.4274520977714 1947.1724872372924,644.2137260488857 1920,617 C 1920,617 1920,1080 1920,1080 Z" fill="#005450" opacity="0.34285714285714286"/><path d="M 0,1080 C 0,1080 0,771 0,771 C 68.52475160898776,754.1628431006757 137.0495032179755,737.3256862013513 184,738 C 230.9504967820245,738.6743137986487 256.32673873708575,756.8600982952705 299,754 C 341.67326126291425,751.1399017047295 401.6435418336813,727.2339206175666 431,717 C 460.3564581663187,706.7660793824334 459.0990939281892,710.2042192344634 515,728 C 570.9009060718108,745.7957807655366 683.9600824535618,777.9492024445798 735,778 C 786.0399175464382,778.0507975554202 775.0605762575639,745.9989709872177 812,739 C 848.9394237424361,732.0010290127823 933.7976125161825,750.0549136065492 975,754 C 1016.2023874838175,757.9450863934508 1013.7489736777065,747.7813745865855 1050,768 C 1086.2510263222935,788.2186254134145 1161.2064927729907,838.8195880471089 1232,826 C 1302.7935072270093,813.1804119528911 1369.425055230331,736.9402732249789 1414,727 C 1458.574944769669,717.0597267750211 1481.093286305685,773.4193190529753 1518,795 C 1554.906713694315,816.5806809470247 1606.2017995469298,803.3824505631201 1635,790 C 1663.7982004530702,776.6175494368799 1670.099515506596,763.0508786945447 1735,750 C 1799.900484493404,736.9491213054553 1923.4001384266867,724.4140346587016 1964,728 C 2004.5998615733133,731.5859653412984 1962.2999307866567,751.2929826706493 1920,771 C 1920,771 1920,1080 1920,1080 Z" fill="#005450" opacity="0.4285714285714286"/><path d="M 0,1080 C 0,1080 0,925 0,925 C 61.86374872521253,942.4117695727371 123.72749745042506,959.8235391454742 171,968 C 218.27250254957494,976.1764608545258 250.95375892351228,975.1176129908404 293,970 C 335.0462410764877,964.8823870091596 386.45746685552587,955.7060088911649 427,930 C 467.54253314447413,904.2939911088351 497.2163736543846,862.0583514445005 551,871 C 604.7836263456154,879.9416485554995 682.6770385269356,940.0605853308332 734,967 C 785.3229614730644,993.9394146691668 810.0754722378732,987.6993072321668 855,961 C 899.9245277621268,934.3006927678332 965.0210725215723,887.1421857404996 1003,872 C 1040.9789274784277,856.8578142595004 1051.8402376758374,873.7319498058351 1089,876 C 1126.1597623241626,878.2680501941649 1189.617976775078,865.9300150361597 1227,877 C 1264.382023224922,888.0699849638403 1275.6878552238502,922.5479900495263 1335,924 C 1394.3121447761498,925.4520099504737 1501.6306023295208,893.8780247657347 1554,889 C 1606.3693976704792,884.1219752342653 1603.7897354580668,905.9399108875352 1626,912 C 1648.2102645419332,918.0600891124648 1695.2104558382127,908.3623316841251 1745,899 C 1794.7895441617873,889.6376683158749 1847.368441189082,880.6107623759642 1877,885 C 1906.631558810918,889.3892376240358 1913.3157794054591,907.1946188120179 1920,925 C 1920,925 1920,1080 1920,1080 Z" fill="#005450" opacity="0.5142857142857142"/><path d="M 0,1080 C 0,1080 0,1079 0,1079 C 39.37472719376976,1114.0516884518688 78.74945438753952,1149.1033769037379 116,1131 C 153.25054561246048,1112.8966230962621 188.37690964361173,1041.6381808369179 252,1024 C 315.6230903563883,1006.3618191630821 407.7429070380136,1042.343899748591 445,1073 C 482.2570929619864,1103.656100251409 464.6514622043343,1128.986220168718 504,1127 C 543.3485377956657,1125.013779831282 639.6512441446494,1095.7112195765367 715,1071 C 790.3487558553506,1046.2887804234633 844.7435612170686,1026.1689015251352 872,1045 C 899.2564387829314,1063.8310984748648 899.3745109870762,1121.6131743229223 927,1118 C 954.6254890129238,1114.3868256770777 1009.7583948346262,1049.378401183176 1066,1028 C 1122.2416051653738,1006.621598816824 1179.5919096744187,1028.873220944373 1219,1046 C 1258.4080903255813,1063.126779055627 1279.8739664676982,1075.1287150393314 1336,1073 C 1392.1260335323018,1070.8712849606686 1482.9122244547882,1054.6119188983007 1544,1068 C 1605.0877755452118,1081.3880811016993 1636.4771357131497,1124.4236093674658 1655,1135 C 1673.5228642868503,1145.5763906325342 1679.1792326926136,1123.693643631836 1737,1122 C 1794.8207673073864,1120.306356368164 1904.8059335163962,1138.8018161051896 1944,1135 C 1983.1940664836038,1131.1981838948104 1951.597033241802,1105.0990919474052 1920,1079 C 1920,1079 1920,1080 1920,1080 Z" fill="#005450" opacity="0.6"/></svg>